<svg width="70" height="70" viewBox="0 0 70 70" fill="none" xmlns="http://www.w3.org/2000/svg">
<path d="M46.0593 36.8965C43.4897 36.8965 41.0761 37.8956 39.2647 39.7095C37.4496 41.5233 36.4492 43.9357 36.4492 46.5041C36.4492 49.0701 37.4482 51.4837 39.2647 53.3C41.0797 55.1138 43.4921 56.1129 46.0593 56.1129C48.6254 56.1129 51.0389 55.1138 52.854 53.3C54.669 51.4836 55.6682 49.0701 55.6682 46.5041C55.6682 43.9368 54.6692 41.5235 52.8553 39.7107C51.0413 37.8956 48.6277 36.8965 46.0593 36.8965ZM51.6927 52.1373C50.1873 53.6417 48.1878 54.4699 46.0593 54.4699C43.9321 54.4699 41.9301 53.6417 40.426 52.1373C38.9205 50.6332 38.0922 48.6326 38.0922 46.5041C38.0922 44.3757 38.9204 42.3749 40.426 40.872C41.9301 39.3666 43.9321 38.5383 46.0593 38.5383C48.1878 38.5383 50.1873 39.3666 51.6927 40.872C53.1969 42.3749 54.0251 44.3757 54.0251 46.5041C54.0252 48.6326 53.1969 50.6332 51.6927 52.1373Z" fill="white"/>
<path d="M68.2287 43.3556L63.1079 42.6135C62.7871 42.5889 62.5107 42.3873 62.3864 42.0887L60.7275 38.0837C60.6033 37.7863 60.6549 37.4471 60.865 37.2038L63.9275 33.0881C64.4155 32.5166 64.3835 31.6673 63.8515 31.1366L61.428 28.7131C61.1491 28.4329 60.7805 28.2916 60.4118 28.2916C60.08 28.2916 59.7469 28.4059 59.4777 28.637L55.3609 31.7007C55.2049 31.8347 55.007 31.9047 54.808 31.9047C54.6974 31.9047 54.5868 31.8825 54.4823 31.8396L50.4748 30.1781C50.1787 30.0564 49.9758 29.7761 49.9501 29.4578L49.2066 24.337C49.1489 23.5873 48.5245 23.0098 47.7749 23.0098H44.3463C43.5954 23.0098 42.971 23.5873 42.9133 24.337L42.1686 29.4578C42.1441 29.7761 41.9425 30.0564 41.6451 30.1792L37.6376 31.8395C37.5319 31.8824 37.4213 31.9046 37.3108 31.9046C37.1118 31.9046 36.915 31.8346 36.7578 31.7006L32.6434 28.6381C32.3742 28.407 32.0413 28.2915 31.7107 28.2915C31.3407 28.2915 30.9721 28.4341 30.6919 28.7142L28.2684 31.1365C27.7375 31.6686 27.7057 32.5165 28.1922 33.088L31.2547 37.2036C31.4624 37.4469 31.5164 37.7861 31.3937 38.0836L29.7333 42.0898C29.6129 42.3872 29.3326 42.5889 29.0145 42.6133L23.8911 43.3568C23.144 43.4159 22.5664 44.0401 22.5664 44.791V48.2172C22.5664 48.9694 23.144 49.5936 23.8911 49.6524L29.0145 50.3948C29.3328 50.4207 29.613 50.6234 29.7333 50.9195L31.3937 54.9269C31.5177 55.2219 31.4624 55.5635 31.2547 55.8068L28.1922 59.9225C27.7057 60.4914 27.7375 61.3419 28.2684 61.8728L30.6919 64.2962C30.9721 64.5764 31.3407 64.7176 31.7095 64.7176C32.0413 64.7176 32.3743 64.6033 32.6435 64.3722L36.758 61.3085C36.9152 61.1745 37.1119 61.1058 37.311 61.1058C37.4216 61.1058 37.5321 61.1266 37.6377 61.1708L41.645 62.8314C41.9423 62.9543 42.1452 63.232 42.1697 63.5528L42.9132 68.6737C42.9709 69.4207 43.5953 69.9996 44.3461 69.9996H47.7747C48.5256 69.9996 49.1486 69.4207 49.2077 68.6737L49.9499 63.5528C49.9758 63.2322 50.1785 62.9545 50.4747 62.8314L54.4822 61.1711C54.5879 61.1268 54.6983 61.106 54.8089 61.106C55.008 61.106 55.206 61.1748 55.362 61.3088L59.4776 64.3725C59.7468 64.6036 60.0797 64.7179 60.4117 64.7179C60.7804 64.7179 61.149 64.5765 61.4279 64.2965L63.8514 61.873C64.3846 61.3422 64.4153 60.4916 63.9274 59.9227L60.8649 55.8071C60.6586 55.5637 60.6032 55.2221 60.7273 54.9272L62.3863 50.9198C62.5106 50.6235 62.787 50.4208 63.1078 50.3951L68.2286 49.6527C68.977 49.5938 69.5546 48.9695 69.5546 48.2199V44.7913C69.5547 44.0401 68.9771 43.4159 68.2287 43.3556ZM67.9116 48.0376L62.9113 48.7628C62.0031 48.8599 61.2264 49.4387 60.8689 50.2916L59.211 54.2928C58.8558 55.1432 58.9947 56.1043 59.571 56.8195L62.5622 60.8393L60.3944 63.007L56.376 60.0159C55.9336 59.6582 55.3793 59.4616 54.8091 59.4616C54.476 59.4616 54.1517 59.5279 53.8542 59.6533L49.843 61.3147C48.9939 61.6686 48.4151 62.4464 48.3179 63.3559L47.593 68.3562H44.5281L43.8018 63.3571C43.706 62.4477 43.1284 61.6686 42.2743 61.3122L38.2717 59.6556C37.9657 59.5265 37.6425 59.4614 37.3108 59.4614C36.743 59.4614 36.19 59.6581 35.7464 60.0143L31.7253 63.0067L29.5587 60.839L32.5488 56.8192C33.1263 56.1039 33.2652 55.1417 32.9114 54.2973L31.2547 50.2986C30.9057 49.4432 30.1265 48.8607 29.2122 48.7624L24.2094 48.0372V44.9698L29.2098 44.2448C30.1278 44.149 30.9082 43.5639 31.2509 42.7185L32.9088 38.7171C33.2651 37.8667 33.1263 36.9045 32.5488 36.1905L29.5575 32.1695L31.7266 30.0017L35.7438 32.9928C36.1874 33.3516 36.7405 33.5471 37.3107 33.5471C37.6401 33.5471 37.9619 33.4831 38.2666 33.3566L42.2729 31.6963C43.1247 31.3448 43.7059 30.5646 43.8005 29.6527L44.528 24.6534H47.5929L48.3178 29.6551C48.4162 30.5669 48.9976 31.3462 49.8454 31.6951L53.8529 33.3566C54.1564 33.4819 54.4783 33.5471 54.8077 33.5471C55.3792 33.5471 55.9334 33.3505 56.3759 32.9928L60.3943 30.0017L62.5621 32.1695L59.5734 36.1856C58.9933 36.8985 58.8532 37.8618 59.2096 38.711L60.8687 42.7185C61.2225 43.5689 62.0018 44.1488 62.9124 44.2448L67.9115 44.9698L67.9116 48.0376Z" fill="white"/>
<path d="M23.3322 35.604L25.8564 34.6823C26.4106 34.4808 26.7142 33.8871 26.5568 33.3206L25.7275 29.3489C25.661 29.1031 25.7359 28.8449 25.9204 28.6754L28.4262 26.375C28.5502 26.2607 28.7124 26.2005 28.876 26.2005C28.9558 26.2005 29.0358 26.2141 29.1106 26.241L32.9658 27.3926C33.0973 27.4417 33.2324 27.465 33.3651 27.4638C33.7903 27.4626 34.1947 27.218 34.3839 26.8125L35.5157 24.3756C35.7677 23.841 35.5611 23.2057 35.0487 22.9168L31.6876 20.7096C31.4688 20.5856 31.3373 20.3509 31.3496 20.0977L31.4947 16.6998C31.5057 16.4478 31.657 16.2266 31.8831 16.1211L35.4566 14.1966C35.9937 13.9533 36.2506 13.3364 36.0489 12.7846L35.1285 10.2593C34.9625 9.80316 34.53 9.51687 34.0654 9.51824C33.9659 9.51947 33.8651 9.53164 33.7656 9.56008L29.7936 10.3871C29.7346 10.4043 29.6744 10.4129 29.6155 10.4129C29.4312 10.4142 29.2517 10.3355 29.1214 10.1955L26.8234 7.69086C26.6513 7.50547 26.5984 7.24105 26.6881 7.00644L27.8384 3.15002C28.0436 2.59836 27.793 1.98381 27.2571 1.73429L24.8202 0.600075C24.6653 0.528708 24.5018 0.494391 24.3409 0.494391C23.9464 0.496715 23.5679 0.705758 23.3628 1.06943L21.1544 4.43175C21.0351 4.64066 20.8139 4.76959 20.5743 4.77082H20.5449L17.1456 4.62343C16.8949 4.61113 16.6688 4.46006 16.5657 4.23269L14.6426 0.661188C14.4546 0.245836 14.0428 -0.00230803 13.6115 1.6184e-05C13.4848 1.6184e-05 13.3559 0.0221646 13.2306 0.0675552L10.7063 0.990407C10.1521 1.19207 9.84731 1.78433 10.0071 2.35089L10.8354 6.32394C10.9029 6.56607 10.828 6.82529 10.6425 6.99496L8.13669 9.29552C8.01022 9.41105 7.8504 9.47134 7.68565 9.47258C7.60704 9.47258 7.52719 9.45781 7.44968 9.42828L3.59585 8.28052C3.46446 8.23007 3.32925 8.20683 3.19649 8.20683C2.77253 8.20916 2.36934 8.45265 2.17903 8.85816L1.04714 11.2963C0.796395 11.8296 1.00161 12.4637 1.51417 12.7549L4.87526 14.9633C5.09524 15.0862 5.22553 15.321 5.21309 15.5705L5.06817 18.9708C5.05833 19.2216 4.90466 19.444 4.67852 19.5497L1.10497 21.4742C0.569168 21.7174 0.312273 22.3332 0.513797 22.885L1.43432 25.4103C1.60139 25.8662 2.03397 26.155 2.49854 26.1538C2.59684 26.1525 2.69637 26.1378 2.79591 26.1096L6.77018 25.2814C6.82801 25.2654 6.88694 25.2568 6.94477 25.2568C7.1303 25.2568 7.31091 25.333 7.43997 25.473L9.7393 27.9801C9.9113 28.1644 9.96161 28.4299 9.87452 28.6658L8.72417 32.5197C8.51909 33.0715 8.77093 33.6871 9.3055 33.938L11.7411 35.0708C11.8971 35.1422 12.0607 35.1765 12.2216 35.1765C12.6161 35.1741 12.9946 34.9664 13.1986 34.6027L15.407 31.2416C15.5248 31.0327 15.7437 30.9023 15.9808 30.9023H16.0177L19.4157 31.0486C19.6675 31.0584 19.8924 31.2095 19.997 31.4381L21.9203 35.0118C22.1095 35.4247 22.5199 35.6729 22.9525 35.6717C23.0779 35.6703 23.2068 35.6494 23.3322 35.604ZM21.4617 30.6921C21.087 29.9314 20.3349 29.441 19.4856 29.4078L16.1 29.2629C16.0582 29.2604 16.0165 29.258 15.9746 29.258C15.177 29.2629 14.4299 29.6856 14.0144 30.3665L12.0287 33.3908L10.404 32.6351L11.4389 29.1732C11.7104 28.3683 11.5247 27.4896 10.9509 26.8702L8.6554 24.367C8.21653 23.8852 7.59118 23.6112 6.93848 23.6148C6.75665 23.6148 6.57468 23.6369 6.39899 23.6812L2.82407 24.4259L2.21198 22.7447L5.42678 21.0144C6.18749 20.6347 6.6779 19.8812 6.70866 19.0396L6.85495 15.6491C6.89542 14.7987 6.47145 14.0073 5.7452 13.5673L2.72454 11.5838L3.47909 9.95916L6.94587 10.9938C7.18676 11.0751 7.43737 11.1143 7.69303 11.1143C8.26807 11.1118 8.81755 10.8981 9.24766 10.5048L11.7461 8.21162C12.3789 7.63658 12.6395 6.77634 12.4343 5.95043L11.6908 2.3792L13.3719 1.76478L15.1009 4.97945C15.477 5.73783 16.2266 6.2281 17.0759 6.26365L20.4787 6.41117L20.5807 6.41363C21.3845 6.40994 22.1329 5.98474 22.5482 5.30265L24.5342 2.2783L26.1588 3.03394L25.1252 6.49347C24.85 7.29957 25.0344 8.17703 25.6119 8.79883L27.9111 11.3046C28.3497 11.785 28.9741 12.0579 29.6218 12.0542C29.8062 12.053 29.988 12.031 30.1674 11.9892L33.7386 11.2432L34.3506 12.9255L31.1344 14.6583C30.3837 15.032 29.8945 15.7767 29.8527 16.6295L29.7064 20.0176C29.6658 20.8693 30.0899 21.6606 30.8174 22.1031L33.8368 24.0877L33.0822 25.7135L29.6167 24.6776C29.3758 24.5964 29.1252 24.5559 28.8683 24.5572C28.2894 24.5583 27.7364 24.7771 27.3149 25.1642L24.8067 27.466C24.1836 28.041 23.9267 28.8989 24.1272 29.7198L24.8731 33.2934L23.1907 33.9054L21.4617 30.6921Z" fill="white"/>
<path d="M25.4341 21.164C26.3226 19.2517 26.4148 17.1085 25.6922 15.13C24.9684 13.1503 23.5196 11.5698 21.6122 10.6837C20.5469 10.1861 19.4163 9.93656 18.2524 9.94148C17.3431 9.94517 16.4435 10.1073 15.5783 10.4233C13.5962 11.1458 12.0158 12.5948 11.1273 14.5057C10.2388 16.4143 10.1466 18.5561 10.8679 20.5396C11.5931 22.5207 13.0433 24.101 14.9505 24.9871C16.0147 25.4823 17.1452 25.7329 18.309 25.7281C19.2197 25.7232 20.1193 25.561 20.9857 25.2463C22.9629 24.5239 24.542 23.0737 25.4341 21.164ZM20.4214 23.7029C19.7321 23.9549 19.0157 24.0815 18.3016 24.0839C17.3946 24.0889 16.4901 23.8921 15.6435 23.4977C14.1307 22.7934 12.9854 21.5423 12.4115 19.9755C11.8414 18.4063 11.9125 16.7104 12.6167 15.1987C13.3209 13.6847 14.5731 12.5369 16.1399 11.9668C16.8305 11.7136 17.5471 11.587 18.2599 11.5846C19.1669 11.5807 20.0701 11.7775 20.9168 12.172C22.4283 12.8761 23.5761 14.1273 24.1488 15.6941C24.7203 17.2622 24.6475 18.9568 23.9447 20.4709C23.2381 21.9837 21.9884 23.1303 20.4214 23.7029Z" fill="white"/>
</svg>
