<svg width="64" height="64" viewBox="0 0 64 64" fill="none" xmlns="http://www.w3.org/2000/svg">
<path d="M0 0H64V64H0V0Z" stroke="white" stroke-width="0.00064"/>
<path d="M55.9994 21.3337C57.4138 21.3337 58.7704 21.8956 59.7706 22.8958C60.7708 23.896 61.3327 25.2526 61.3327 26.6671V37.3337C61.3327 38.7482 60.7708 40.1048 59.7706 41.105C58.7704 42.1051 57.4138 42.6671 55.9994 42.6671H53.1674C52.5172 47.8225 50.0081 52.5635 46.1107 56.0004C42.2133 59.4372 37.1956 61.3336 31.9993 61.3337V56.0004C36.2428 56.0004 40.3125 54.3147 43.3131 51.3141C46.3136 48.3135 47.9994 44.2439 47.9994 40.0004V24.0004C47.9994 19.7569 46.3136 15.6873 43.3131 12.6867C40.3125 9.6861 36.2428 8.00039 31.9993 8.00039C27.7559 8.00039 23.6862 9.6861 20.6856 12.6867C17.6851 15.6873 15.9993 19.7569 15.9993 24.0004V42.6671H7.99935C6.58486 42.6671 5.22831 42.1051 4.22811 41.105C3.22792 40.1048 2.66602 38.7482 2.66602 37.3337V26.6671C2.66602 25.2526 3.22792 23.896 4.22811 22.8958C5.22831 21.8956 6.58486 21.3337 7.99935 21.3337H10.8313C11.4821 16.1788 13.9916 11.4384 17.8889 8.00219C21.7862 4.56593 26.8035 2.66992 31.9993 2.66992C37.1952 2.66992 42.2125 4.56593 46.1098 8.00219C50.0071 11.4384 52.5166 16.1788 53.1674 21.3337H55.9994ZM20.6927 42.0937L23.5193 37.5711C26.0609 39.1631 29.0003 40.0052 31.9993 40.0004C34.9984 40.0052 37.9378 39.1631 40.4794 37.5711L43.306 42.0937C39.9174 44.2168 35.9981 45.3399 31.9993 45.3337C28.0006 45.3399 24.0813 44.2168 20.6927 42.0937Z" fill="white" stroke="white" stroke-width="0.00064"/>
</svg>
