<svg width="64" height="50" viewBox="0 0 64 50" fill="none" xmlns="http://www.w3.org/2000/svg">
<path d="M12.8339 23.834C10.268 23.834 8.16797 25.934 8.16797 28.4999C8.16797 31.0659 10.268 33.1659 12.8339 33.1659C15.3998 33.1659 17.4998 31.0659 17.4998 28.4999C17.4998 25.934 15.3998 23.834 12.8339 23.834ZM12.8339 30.834C11.5498 30.834 10.4998 29.784 10.4998 28.4999C10.4998 27.2159 11.5498 26.1659 12.8339 26.1659C14.118 26.1659 15.168 27.2159 15.168 28.4999C15.168 29.784 14.118 30.834 12.8339 30.834Z" fill="#FFF9F9" stroke="#FFF9F9" stroke-width="0.768"/>
<path d="M50.1659 23.834C47.6 23.834 45.5 25.934 45.5 28.4999C45.5 31.0659 47.6 33.1659 50.1659 33.1659C52.7319 33.1659 54.8319 31.0659 54.8319 28.4999C54.8319 25.934 52.7319 23.834 50.1659 23.834ZM50.1659 30.834C48.8819 30.834 47.8319 29.784 47.8319 28.4999C47.8319 27.2159 48.8819 26.1659 50.1659 26.1659C51.45 26.1659 52.5 27.2159 52.5 28.4999C52.5 29.784 51.45 30.834 50.1659 30.834Z" fill="#FFF9F9" stroke="#FFF9F9" stroke-width="0.768"/>
<path d="M54.95 14.5L52.9659 5.16594C52.15 2.13187 49.8159 0.5 46.6659 0.5H16.3319C13.0659 0.5 11.1978 2.13406 10.2659 5.16594L8.16594 14.5H0V16.8341H7.58406V16.95C3.96813 17.1841 1.16812 20.2159 1.16812 23.95V40.1659H4.66813V43.6659C4.66813 46.9319 7.23406 49.5 10.5022 49.5C13.7703 49.5 16.3363 46.9341 16.3363 43.6659V40.1659H46.6703V43.6659C46.6703 46.9319 49.2363 49.5 52.5044 49.5C55.7725 49.5 58.3384 46.9341 58.3384 43.6659V40.1659H61.8384V23.95C61.8384 20.3341 59.0384 17.3 55.5384 16.95V16.8341H63.0044V14.5H54.9544H54.95ZM12.4841 5.86594C13.1841 3.76594 14.2341 2.83187 16.3341 2.83187H46.6681C48.8841 2.83187 50.1681 3.76594 50.7522 5.74781L53.0863 16.9478H9.92031L12.4862 5.86375L12.4841 5.86594ZM14 43.6659C14 45.65 12.4841 47.1659 10.5 47.1659C8.51594 47.1659 7 45.65 7 43.6659V40.1659H14V43.6659ZM56 43.6659C56 45.65 54.4841 47.1659 52.5 47.1659C50.5159 47.1659 49 45.65 49 43.6659V40.1659H56V43.6659ZM59.5 23.95V37.8341H3.5V23.95C3.5 21.3841 5.6 19.2841 8.16594 19.2841H54.8319C57.3978 19.2841 59.4978 21.3841 59.4978 23.95H59.5Z" fill="#FFF9F9" stroke="#FFF9F9" stroke-width="0.768"/>
</svg>
